<svg
   version="1.1"
   id="svg1"
   width="726.57037"
   height="829.87952"
   viewBox="0 0 726.57036 829.87951"
   xmlns="http://www.w3.org/2000/svg"
   xmlns:svg="http://www.w3.org/2000/svg">
   <defs
      id="defs1" />
   <g
      id="g124"
      style="fill:#fbbf24;fill-opacity:1"
      transform="translate(-952.91751,-162.18186)">
      <path
         id="path59"
         d="m 1255.46,168.93338 c -3.012,-1.36 -6.1867,-2.52 -9.5107,-3.4 -6.6307,-1.76 -14.0507,-2.13334 -21.2227,-0.48 -7.168,1.62666 -13.9213,5.26666 -19.0906,10.21333 -5.2054,4.93333 -8.9854,10.90667 -11.4427,17.12 -2.4373,6.25333 -3.6453,12.69333 -3.9067,19.06667 -0.328,6.42666 0.6054,12.95999 2.5574,19.17333 1.9826,6.21333 5.1506,12.10666 9.5133,17.09333 4.3107,5.02667 10.0533,8.92 16.4347,11.10667 6.404,2.18666 13.4586,2.37333 19.872,0.28 6.7106,-2.09334 12.1413,-7.72 14.2266,-13.8 2.292,-6.06667 1.936,-12.53334 -0.04,-18.14667 -1.948,-5.58666 -6.5333,-10.57333 -12.0866,-11.57333 4.9986,2.62667 7.3333,7.73333 7.9626,12.62666 0.628,4.94667 -0.5626,10 -2.864,13.84 -2.3333,3.89334 -5.9586,6.18667 -9.916,6.62667 -4.1693,0.6 -8.5373,-0.12 -12.2226,-2.09333 -7.4454,-3.94667 -12.6734,-11.85334 -14.368,-20.48 -0.888,-4.32 -0.9374,-8.8 -0.396,-13.26667 0.5146,-4.50666 1.7533,-8.84 3.5613,-12.65333 3.564,-7.74667 9.7707,-12.94667 16.7213,-14.24 3.508,-0.64 7.2894,-0.44 11.188,0.6 1.9467,0.54667 3.908,1.28 5.86,2.18667 1.4774,0.73333 2.8347,1.65333 4.2494,2.81333 5.6653,4.84 10.12,13.74667 13.3693,23.01333 3.2213,9.41333 5.5227,19.57333 7.1213,29.86667 0.844,5.14666 1.5,10.36 1.9614,15.54666 l 0.344,3.88 0.2773,4.06667 c 0.22,2.86667 0.2613,5.78667 0.6387,8.61333 1.144,11.4 3.232,22.50667 5.8853,33.37334 0.088,0.36 0.1893,0.72 0.28,1.08 l 15.436,-3.94667 c -0.037,-0.18667 -0.081,-0.36 -0.1187,-0.54667 -2.0426,-10.44 -3.492,-20.93333 -4.044,-31.29333 -0.2306,-2.6 -0.1266,-5.16 -0.212,-7.73333 l -0.028,-1.94667 0.063,-2.16 c 0.027,-1.44 0.055,-2.88 0.025,-4.30667 -0.087,-5.70666 -0.3813,-11.37333 -0.8853,-17.06666 -1.1307,-11.33334 -2.9387,-22.72 -6.512,-34.06667 -1.7947,-5.68 -3.912,-11.37333 -6.98,-16.94666 -3,-5.56 -6.8747,-11.10667 -12.2867,-15.93334 -2.7506,-2.37333 -5.9706,-4.48 -9.4146,-6.10666"
         style="fill:#fbbf24;fill-opacity:1;fill-rule:nonzero;stroke:none;stroke-width:0.133333" />
      <path
         id="path60"
         d="m 1179.3746,340.34671 c -4.9213,-7.76 -11.7026,-14.24 -19.9666,-18.81334 -8.3627,-4.62666 -17.5654,-6.98666 -26.8667,-6.98666 -5.1547,0 -10.336,0.72 -15.4267,2.17333 -14.2786,4.10667 -26.1053,13.52 -33.304,26.52 -6.5266,11.77333 -8.5226,25.21333 -5.7866,38.26666 20.5733,-15.53333 46.1533,-24.77333 73.8693,-24.77333 h 18.8413 l 8.64,-16.38666"
         style="fill:#fbbf24;fill-opacity:1;fill-rule:nonzero;stroke:none;stroke-width:0.133333" />
      <path
         id="path61"
         d="m 1316.664,573.78403 c -2.5267,0 -5.0414,0.0707 -7.5454,0.2 -6.1626,9.036 -13.6946,17.06267 -22.3133,23.764 5.7827,-0.272 11.8027,-0.50666 18.032,-0.68666 3.9107,-0.35067 7.8493,-0.56 11.8267,-0.56 2.3373,0 4.6613,0.072 6.9773,0.19333 7.5413,-0.0707 15.292,-0.0467 23.1853,0.0867 -8.0933,-6.48667 -15.2093,-14.13867 -21.0746,-22.72 -3.012,-0.18 -6.0414,-0.27734 -9.088,-0.27734"
         style="fill:#fbbf24;fill-opacity:1;fill-rule:nonzero;stroke:none;stroke-width:0.133333" />
      <path
         id="path62"
         d="m 1329.6493,235.92004 v -20.58666 c -2.632,0.54666 -5.352,0.85333 -8.1494,0.85333 -5.0453,0 -9.8546,-0.96 -14.296,-2.68 v 21.24 c 4.5867,1.12 9.3694,1.73333 14.296,1.73333 2.7654,0 5.484,-0.2 8.1507,-0.56"
         style="fill:#fbbf24;fill-opacity:1;fill-rule:nonzero;stroke:none;stroke-width:0.133333" />
      <path
         id="path63"
         d="m 1307.2013,304.14671 8.5773,-2.2 13.872,3.46666 v -53.54666 c -2.6787,0.29333 -5.3933,0.46666 -8.1507,0.46666 -4.888,0 -9.664,-0.48 -14.296,-1.37333 v 53.18667"
         style="fill:#fbbf24;fill-opacity:1;fill-rule:nonzero;stroke:none;stroke-width:0.133333" />
      <path
         id="path64"
         d="m 1190.7346,333.90671 8.8187,-2.26667 c -15.3147,-25.17333 -42.9867,-42.05333 -74.552,-42.05333 -48.1013,0 -87.2333,39.14666 -87.2333,87.23999 0,13.98667 3.344,27.17334 9.2146,38.90667 5.5774,-9.13333 12.332,-17.46667 20.02,-24.84 -0.1866,-0.58667 -0.3813,-1.17333 -0.5506,-1.77333 -5.0614,-17.62667 -2.9534,-36.17333 5.936,-52.21333 8.888,-16.05334 23.4933,-27.66667 41.1253,-32.73334 17.6293,-5.05333 36.1773,-2.94666 52.224,5.93334 10.4,5.76 18.9,13.96 24.9973,23.8"
         style="fill:#fbbf24;fill-opacity:1;fill-rule:nonzero;stroke:none;stroke-width:0.133333" />
      <path
         id="path65"
         d="m 1412.12,165.05338 c -7.1734,-1.65334 -14.5867,-1.28 -21.2134,0.48 -3.3333,0.88 -6.5066,2.04 -9.52,3.4 -3.44,1.62666 -6.6533,3.73333 -9.4133,6.10666 -5.4133,4.82667 -9.28,10.37334 -12.28,15.93334 -3.0667,5.57333 -5.1867,11.26666 -6.9867,16.94666 -3.5733,11.34667 -5.3733,22.73333 -6.5066,34.06667 -0.5067,5.69333 -0.8,11.36 -0.8934,17.06666 -0.027,1.42667 0,2.86667 0.027,4.30667 l 0.067,2.16 -0.027,1.94667 c -0.08,2.57333 0.013,5.13333 -0.2133,7.73333 -0.5467,10.36 -2,20.85333 -4.04,31.29333 -0.12,0.56 -0.2534,1.13334 -0.3734,1.69334 l 15.4134,3.86666 c 0.1866,-0.72 0.3733,-1.42666 0.5466,-2.14666 2.6667,-10.86667 4.7467,-21.97334 5.8934,-33.37334 0.3733,-2.82666 0.4133,-5.74666 0.64,-8.61333 l 0.28,-4.06667 0.3333,-3.88 c 0.4667,-5.18666 1.12,-10.4 1.9733,-15.54666 1.5867,-10.29334 3.8934,-20.45334 7.12,-29.86667 3.24,-9.26666 7.6934,-18.17333 13.36,-23.01333 1.4134,-1.16 2.7734,-2.08 4.2534,-2.81333 1.9466,-0.90667 3.9066,-1.64 5.8533,-2.18667 3.9067,-1.04 7.6933,-1.24 11.2,-0.6 6.9467,1.29333 13.1467,6.49333 16.72,14.24 1.8,3.81333 3.04,8.14667 3.56,12.65333 0.5333,4.46667 0.4933,8.94667 -0.4,13.26667 -1.6933,8.62666 -6.92,16.53333 -14.3733,20.48 -3.68,1.97333 -8.0534,2.69333 -12.2134,2.09333 -3.96,-0.44 -7.5866,-2.73333 -9.92,-6.62667 -2.3066,-3.84 -3.4933,-8.89333 -2.8666,-13.84 0.6266,-4.89333 2.9733,-9.99999 7.96,-12.62666 -5.5467,1 -10.1334,5.98667 -12.08,11.57333 -1.9734,5.61333 -2.3334,12.08 -0.04,18.14667 2.08,6.08 7.52,11.70666 14.2266,13.8 6.4134,2.09333 13.4667,1.90666 19.8667,-0.28 6.3867,-2.18667 12.1333,-6.08 16.44,-11.10667 4.36,-4.98667 7.5333,-10.88 9.52,-17.09333 1.9467,-6.21334 2.88,-12.74667 2.5467,-19.17333 -0.2534,-6.37334 -1.4667,-12.81334 -3.9067,-19.06667 -2.4533,-6.21333 -6.24,-12.18667 -11.44,-17.12 -5.1733,-4.94667 -11.92,-8.58667 -19.0933,-10.21333"
         style="fill:#fbbf24;fill-opacity:1;fill-rule:nonzero;stroke:none;stroke-width:0.133333" />
      <path
         id="path67"
         d="m 1514.04,536.73337 c -1.0534,5.13333 -2.4934,10.12 -4.2667,14.93333 7.1333,0.64 14.2133,1.93333 21.1867,3.92 l 6.0533,1.73333 c 8.3467,2.38534 14.2133,9.05067 15.8933,16.95467 l 17.96,-18.46133 c -21.9733,-8.10667 -40.6933,-14.32 -56.8266,-19.08"
         style="fill:#fbbf24;fill-opacity:1;fill-rule:nonzero;stroke:none;stroke-width:0.133333" />
      <path
         id="path68"
         d="m 1100.1546,478.7467 c 25,-9.50666 49.6934,-17.36 71.9534,-23.56 l -23.0107,-7.97333 c -0.376,0 -0.8413,-0.0133 -1.3947,-0.0133 -13.0893,0 -75.1906,1.94666 -131.624,36.81333 -4.844,3 -8.0826,7.44 -8.8866,12.2 -0.196,1.14666 -0.32,2.34666 -0.3747,3.58666 4.5027,-0.08 14.468,-3.06666 21.3653,-5.12 4.9054,-1.46666 9.9787,-2.98666 15.1427,-4.30666 18.944,-4.8 38.2347,-8.61333 56.8293,-11.62667"
         style="fill:#fbbf24;fill-opacity:1;fill-rule:nonzero;stroke:none;stroke-width:0.133333" />
      <path
         id="path69"
         d="m 1519.3733,242.94671 c 5.5467,0 9.6667,4.53333 9.9067,9.89333 0.24,5.34667 -4.7334,9.90667 -9.9067,9.90667 -5.56,0 -9.6667,-4.53334 -9.9067,-9.90667 -0.24,-5.34667 4.72,-9.89333 9.9067,-9.89333 z m 16.1067,11.45333 c 0.5333,-2.36 2.4933,-4.72 4.5466,-5.92 1.1334,-0.72 2.36,-1.10667 3.68,-1.17333 1.32,-0.29334 2.64,-0.22667 3.9467,0.17333 5.7733,2.28 11.4267,4.81333 16.88,7.76 2.2933,1.22667 3.7733,3.50667 4.5467,5.92 0.8266,2.54667 0.2133,5.32 -1,7.62667 -1.12,2.14666 -3.6134,3.92 -5.9067,4.54666 -2.5733,0.70667 -5.3333,0.25334 -7.64,-1 -3.48,-1.88 -7.0533,-3.58666 -10.68,-5.16 -0.4933,-0.18666 -0.9733,-0.4 -1.4533,-0.58666 -1.68,-0.46667 -3.1467,-1.32 -4.3734,-2.54667 -0.52,-0.66667 -1.04,-1.33333 -1.5466,-2 -1.4534,-2.25333 -1.5734,-5.09333 -1,-7.64 z m 45.6,12.50667 c 5.5466,0 9.6666,4.54666 9.9066,9.90666 0.24,5.34667 -4.72,9.90667 -9.9066,9.90667 -5.5467,0 -9.6667,-4.54667 -9.9067,-9.90667 -0.24,-5.34666 4.7333,-9.90666 9.9067,-9.90666 z m 18.8666,17.34666 c 5.56,0 9.6667,4.53334 9.9067,9.90667 0.24,5.34667 -4.72,9.89333 -9.9067,9.89333 -5.5466,0 -9.6533,-4.53333 -9.8933,-9.89333 -0.24,-5.36 4.72,-9.90667 9.8933,-9.90667 z m -99.5866,-24.56 c -1.84,1.84 -4.4267,2.84 -7,2.90667 -2.8267,0.0667 -5.6534,0.28 -8.4534,0.61333 -2.76,0.41334 -5.4933,0.93334 -8.2,1.58667 -5.4,1.33333 -10.4933,-1.69333 -12.1866,-6.90667 -0.7734,-2.38666 -0.24,-5.50666 1,-7.64 1.2266,-2.08 3.5466,-3.96 5.92,-4.54666 7.1466,-1.76 14.56,-2.74667 21.92,-2.92 2.6533,-0.0667 5.0933,1.14666 7,2.90666 1.9466,1.78667 2.7866,4.44 2.9066,7 0.1067,2.46667 -1.1866,5.28 -2.9066,7 z m -40.7867,-16.98666 c -10.5867,23.68 -34.3467,40.22666 -61.92,40.22666 -1.9467,0 -3.9733,-0.0933 -6.16,-0.29333 l -5.1733,-0.45333 -1.4134,4.98666 c -1.8933,6.73334 -6.2266,18.28 -12.5466,28.93334 l 46.6666,11.66666 c 17.4667,-32.14666 51.52,-54.02666 90.6134,-54.02666 56.84,0 103.08,46.24 103.08,103.07999 0,5.22667 -0.4,10.36 -1.16,15.38667 4.1733,-0.0933 10.5866,0 18.08,0.86667 17.48,-42.53333 -1.16,-92.76 -30.3734,-122.73333 -44.96,-46.12 -117.4933,-33.10667 -139.6933,-27.64"
         style="fill:#fbbf24;fill-opacity:1;fill-rule:nonzero;stroke:none;stroke-width:0.133333" />
      <path
         id="path70"
         d="m 1287.072,397.6267 c -1.1507,9.8 -2.9054,23.4 -5.212,40.44 -0.224,1.65334 -0.448,3.28 -0.6734,4.92 5.204,2.29334 10.0534,5.37334 14.3974,9.18667 6.0533,5.32 10.896,11.8 14.4053,19.10667 2.8653,-44.21334 6.7387,-104.41334 7.6947,-121.30667 -0.01,-1.42666 -0.019,-2.54666 -0.029,-3.30666 0.025,0.50666 0.06,1.17333 0.1054,1.97333 0.044,-0.8 0.077,-1.46667 0.1026,-1.97333 -0.011,0.76 -0.021,1.88 -0.029,3.30666 0.9613,16.97333 4.5987,77.04 7.2747,120.86667 3.492,-7.13334 8.252,-13.45334 14.1853,-18.66667 4.56,-4 9.6533,-7.17333 15.1467,-9.49333 -0.2134,-1.53334 -0.4267,-3.06667 -0.6267,-4.61334 -2.3067,-17.04 -4.0667,-30.64 -5.2133,-40.44 -0.6934,-5.88 -1.1734,-10.46666 -1.44,-13.64 -0.4,-4.92 -1.08,-13.17333 7.5066,-14.82666 1.2267,-0.24 3.08,-0.6 64.64,0.62666 l 7.8134,0.14667 6.6533,38.16 -18.6,3.04 -4.0533,-23.24 c -15.1867,-0.29333 -33.8,-0.6 -44.7334,-0.70667 1.1067,10.69334 3.6267,30.10667 6.4667,51.05334 3.2133,-0.24 6.48,-0.24 9.7733,0.04 9.8134,0.8 27.2134,3.78666 49.08,8.93333 l 34.9867,-12.13333 c 10.3333,-5.44 17.1733,-9.29334 17.1733,-9.29334 l -40.72,-75.83999 -125.3133,-31.97334 -125.32,31.97334 -40.7187,75.83999 c 0,0 7.5227,4.22667 18.7027,10.09334 l 32.6733,11.33333 c 21.876,-5.14667 39.272,-8.13333 49.0827,-8.93333 3.5667,-0.29334 7.0907,-0.26667 10.5493,0.0267 2.8507,-20.97333 5.3667,-40.41333 6.4814,-51.12 -10.9374,0.10667 -29.556,0.41334 -44.732,0.70667 l -4.052,23.24 -18.6,-3.04 6.6533,-38.16 7.808,-0.14667 c 61.564,-1.22666 63.4133,-0.86666 64.6387,-0.62666 8.5826,1.65333 7.908,9.90666 7.504,14.82666 -0.2587,3.17334 -0.74,7.76 -1.432,13.64"
         style="fill:#fbbf24;fill-opacity:1;fill-rule:nonzero;stroke:none;stroke-width:0.133333" />
      <path
         id="path71"
         d="m 1106.4266,212.94671 c -2.5133,-2.24 -5.2426,-4.37333 -8.2706,-6.46667 -9.356,-6.44 -19.6694,-10.04 -30.0934,-10.62666 -5.808,-0.32 -11.6373,0.30666 -17.3453,1.89333 -16.096,4.49333 -29.1147,16.13333 -36.516,32.65333 -3.948,8.81333 -5.9973,18.38667 -6.18,28.16 1.9267,-2.21333 3.74,-4.24 5.3667,-6.04 22.8826,-25.42667 54.8026,-38.90666 93.0386,-39.57333"
         style="fill:#fbbf24;fill-opacity:1;fill-rule:nonzero;stroke:none;stroke-width:0.133333" />
      <path
         id="path72"
         d="m 1053.5453,559.7267 c 3.028,4.00267 6.3453,7.79467 9.964,11.244 -2.444,-3.39467 -4.492,-7.596 -5.84,-12.804 -1.3533,0.508 -2.7453,1.03733 -4.124,1.56"
         style="fill:#fbbf24;fill-opacity:1;fill-rule:nonzero;stroke:none;stroke-width:0.133333" />
      <path
         id="path73"
         d="m 1049.1533,708.44803 c 11.344,-28.05333 25.316,-54.10533 41.5027,-77.62133 -2.924,-11.94 -5.316,-24.008 -7.1347,-36.176 -12.404,13.448 -24.1307,27.93333 -35.0867,43.37733 l 0.7187,70.42"
         style="fill:#fbbf24;fill-opacity:1;fill-rule:nonzero;stroke:none;stroke-width:0.133333" />
      <path
         id="path74"
         d="m 1484.0666,356.73337 c 27.2,0 52.3467,8.90667 72.72,23.93333 2.48,-12.78666 0.4267,-25.90666 -5.96,-37.42666 -7.2,-13 -19.0266,-22.41333 -33.3066,-26.52 -5.0934,-1.45333 -10.2667,-2.17333 -15.4267,-2.17333 -9.2933,0 -18.5067,2.36 -26.8667,6.98666 -8.28,4.58667 -15.08,11.08 -20,18.86667 l 8.9734,16.33333 h 19.8666"
         style="fill:#fbbf24;fill-opacity:1;fill-rule:nonzero;stroke:none;stroke-width:0.133333" />
      <path
         id="path75"
         d="m 1619.0133,252.52004 c 1.6267,1.8 3.44,3.82667 5.3733,6.04 -0.1866,-9.77333 -2.2266,-19.34667 -6.1866,-28.16 -7.4,-16.52 -20.4134,-28.16 -36.5067,-32.65333 -5.7067,-1.58667 -11.5467,-2.21333 -17.3467,-1.89333 -10.4266,0.58666 -20.7333,4.18666 -30.0933,10.62666 -3.0933,2.13334 -5.8933,4.24 -8.4533,6.46667 38.32,0.61333 70.2933,14.10666 93.2133,39.57333"
         style="fill:#fbbf24;fill-opacity:1;fill-rule:nonzero;stroke:none;stroke-width:0.133333" />
      <path
         id="path76"
         d="m 1534.7466,478.76004 c 18.5867,3.01333 37.8667,6.81333 56.8134,11.61333 5.16,1.32 10.2266,2.84 15.1333,4.30666 6.9067,2.05334 16.8667,5.04 21.3733,5.12 -0.053,-1.24 -0.1866,-2.44 -0.3733,-3.58666 -0.8133,-4.76 -4.0533,-9.2 -8.8933,-12.2 -56.4267,-34.86667 -118.5334,-36.81333 -131.6267,-36.81333 -0.5467,0 -1.0133,0.0133 -1.3867,0.0133 l -23.0133,7.97333 c 22.2667,6.2 46.96,14.05334 71.9733,23.57334"
         style="fill:#fbbf24;fill-opacity:1;fill-rule:nonzero;stroke:none;stroke-width:0.133333" />
      <path
         id="path77"
         d="m 1567.9466,389.9067 c 7.7734,7.29334 14.6134,15.57334 20.2934,24.65334 5.5066,-11.42667 8.6266,-24.21334 8.6266,-37.73334 0,-48.09333 -39.1333,-87.23999 -87.2266,-87.23999 -31.6134,0 -59.32,16.93333 -74.6267,42.18666 l 8.84,2.2 c 6.1067,-9.86666 14.6133,-18.08 25.0533,-23.86666 16.04,-8.88 34.5867,-10.98667 52.2134,-5.93334 17.64,5.06667 32.24,16.68 41.1333,32.73334 8.88,16.04 10.9867,34.58666 5.9333,52.21333 -0.08,0.26666 -0.1733,0.53333 -0.24,0.78666"
         style="fill:#fbbf24;fill-opacity:1;fill-rule:nonzero;stroke:none;stroke-width:0.133333" />
      <path
         id="path78"
         d="m 1499.0533,572.95337 c -8.1467,12.348 -18.8267,22.81466 -31.3333,30.696 6.1333,23.56133 9.4533,47.75466 9.8266,72.17733 l 0.1467,9.40533 c 1.5067,8.3 8.6267,14.27333 17.12,14.27333 7.9333,0 14.8667,-5.372 16.84,-13.06133 l 0.5333,-1.50133 c 12.52,-31.18267 20.92,-63.90133 24.96,-97.24933 l 0.1867,-1.02 c 0.9333,-3.572 -1.1333,-7.16267 -4.68,-8.17467 l -6.04,-1.72667 c -1.4267,-0.41066 -2.88,-0.77466 -4.32,-1.11866 -0.2933,6.852 -0.8,13.69733 -1.56,20.51466 -1.6133,14.70267 -4.0933,29.32667 -7.7733,43.66267 -3.52,14.36133 -8.3467,28.42533 -14.48,41.91733 1.3733,-14.81067 3.6266,-29.18667 5.3066,-43.65333 1.92,-14.40934 3.5334,-28.80933 5.1334,-43.20667 0.8,-7.06533 1.52,-14.14266 2.2133,-21.22533 -3.9067,-0.46933 -7.8267,-0.71867 -11.7467,-0.71867 l -0.3333,0.009"
         style="fill:#fbbf24;fill-opacity:1;fill-rule:nonzero;stroke:none;stroke-width:0.133333" />
      <path
         id="path79"
         d="m 963.29331,271.77337 c 1.252,16.4 5.72933,31.82667 12.596,45.56 3.86133,-16.58666 11.1,-30.38666 18.68667,-41.52 -3.52134,-18.56 -1.57467,-37.48 5.86532,-54.21333 9.164,-20.62666 25.3867,-35.10666 45.4613,-40.62666 19.872,-5.46667 40.8347,-1.38667 58.864,11.22666 8.292,5.8 15.4254,13.12 21.2814,21.48 4.1506,0.37334 8.1786,0.86667 12.056,1.44 -17.2854,-29.44 -46.3974,-50.46666 -79.7987,-52.73333 -56.312,-3.82667 -99.81599,46.45333 -95.01199,109.38666"
         style="fill:#fbbf24;fill-opacity:1;fill-rule:nonzero;stroke:none;stroke-width:0.133333" />
      <path
         id="path80"
         d="m 1574.1066,162.38671 c -33.4,2.26667 -62.52,23.29333 -79.8,52.73333 3.88,-0.57333 7.9067,-1.06666 12.0534,-1.44 5.8533,-8.36 12.9866,-15.68 21.28,-21.48 18.0266,-12.61333 38.9866,-16.69333 58.8666,-11.22666 20.0667,5.52 36.2934,20 45.4534,40.62666 7.44,16.73333 9.3866,35.65333 5.8666,54.21333 7.5867,11.13334 14.8267,24.93334 18.6934,41.52 6.8666,-13.73333 11.3466,-29.16 12.6,-45.56 4.8,-62.93333 -38.7067,-113.21333 -95.0134,-109.38666"
         style="fill:#fbbf24;fill-opacity:1;fill-rule:nonzero;stroke:none;stroke-width:0.133333" />
      <path
         id="path81"
         d="m 1660.2266,576.8667 c -2.4266,-6.316 -14.8933,-23.65333 -55.9733,-46.2 -83.2267,-45.68 -190.2133,-70.18666 -220.8,-72.70666 -1.36,-0.12 -2.6933,-0.17334 -4.0133,-0.17334 -10.4667,0 -19.9334,3.48 -27.56,10.18667 -9.36,8.21333 -14.8667,20.34667 -15.52,34.17333 -0.6134,12.89333 3.84,25.24 12.52,34.78667 8.68,9.54666 20.56,15.13333 33.4533,15.74666 21.68,1.05334 36.24,-14.94666 43.4933,-32 -16.9333,-0.52 -39.52,-0.33333 -45.48,1.25334 -9.8666,2.64 -4.9466,12.90666 -0.1866,12.42666 l 0.6666,6.37334 c -0.9066,0.0933 -1.7866,0.13333 -2.6266,0.13333 -9.3734,0 -14.64,-5.6 -15.7467,-11.58667 -1.56,-8.36 4.3467,-16.57333 13.7333,-19.12 11.3867,-3.08 50.3334,-1.30666 58.04,-0.92 l -0.013,0.12 1.6933,0.08 c 35.2134,1.68 88.7067,10.77334 218.4667,65.624 2.5867,1.092 4.52,1.596 5.8533,1.80267"
         style="fill:#fbbf24;fill-opacity:1;fill-rule:nonzero;stroke:none;stroke-width:0.133333" />
      <path
         id="path82"
         d="m 1397.6533,935.54002 c 37.3867,0 67.7867,-30.408 67.7867,-67.78399 0,-37.38 -30.4,-67.788 -67.7867,-67.788 -36.1733,0 -65.3827,26.26533 -67.9467,61.092 l -0.06,1.70933 v 123.732 c 0.037,0.96933 0.4854,3.40933 3.6094,5.044 2.98,-10.78267 5.6466,-21.60934 7.86,-32.45334 2.04,-10.43866 3.4933,-20.928 4.04,-31.29066 0.2266,-2.60134 0.1333,-5.15867 0.2133,-7.73467 l 0.027,-1.93867 -0.067,-2.168 c -0.027,-1.43866 -0.053,-2.87333 -0.027,-4.30133 0.093,-5.70933 0.3867,-11.38133 0.8934,-17.064 1.1333,-11.34266 2.9333,-22.72666 6.5066,-34.07733 1.8,-5.672 3.92,-11.37467 6.9867,-16.944 3,-5.56133 6.8667,-11.11067 12.28,-15.93867 2.7467,-2.37066 5.9733,-4.47333 9.4133,-6.09733 3.0134,-1.36533 6.1867,-2.524 9.52,-3.39733 6.6267,-1.76267 14.04,-2.144 21.2134,-0.48134 7.1733,1.61734 13.92,5.26134 19.0933,10.20534 5.2,4.932 8.9867,10.91733 11.44,17.12666 2.44,6.24534 3.6533,12.69467 3.9067,19.06934 0.3333,6.41466 -0.6,12.95466 -2.5467,19.16666 -1.9867,6.20934 -5.16,12.10933 -9.52,17.096 -4.3067,5.02267 -10.0533,8.924 -16.44,11.10533 -6.4,2.19334 -13.4533,2.36934 -19.8667,0.28534 -6.7066,-2.1 -12.1466,-7.72 -14.2266,-13.79734 -2.2934,-6.07466 -1.9334,-12.53599 0.04,-18.15333 1.9466,-5.59066 6.5333,-10.572 12.08,-11.568 -4.9867,2.61334 -7.3334,7.73334 -7.96,12.61334 -0.6267,4.95866 0.56,10.00133 2.8666,13.84533 2.3334,3.89733 5.96,6.18666 9.92,6.62933 4.16,0.60533 8.5334,-0.11867 12.2134,-2.092 7.4533,-3.952 12.68,-11.85866 14.3733,-20.476 0.8933,-4.32 0.9333,-8.81333 0.4,-13.27333 -0.52,-4.508 -1.76,-8.84267 -3.56,-12.652 -3.5733,-7.74267 -9.7733,-12.948 -16.72,-14.23867 -3.5067,-0.64133 -7.2933,-0.44533 -11.2,0.604 -1.9467,0.54134 -3.9067,1.26934 -5.8533,2.176 -1.48,0.73867 -2.84,1.66267 -4.2534,2.824 -5.6666,4.83734 -10.12,13.73867 -13.36,23.012 -3.2266,9.404 -5.5333,19.568 -7.12,29.86267 -0.8533,5.148 -1.5066,10.35466 -1.9733,15.54266 l -0.3333,3.87734 -0.28,4.07333 c -0.2267,2.87067 -0.2667,5.78533 -0.64,8.61067 -1.1467,11.4 -3.2267,22.50533 -5.8934,33.37866 -2.44,10.028 -5.3866,19.85734 -8.64,29.54934 19.6667,-6.28534 33.0534,-38.88934 36.84,-52.28267 l 1.4134,-4.988 5.1733,0.456 c 2.1867,0.2 4.2133,0.29333 6.16,0.29333"
         style="fill:#fbbf24;fill-opacity:1;fill-rule:nonzero;stroke:none;stroke-width:0.133333" />
      <path
         id="path83"
         d="m 1239.192,799.96803 c -37.376,0 -67.784,30.408 -67.784,67.788 0,37.37599 30.408,67.78399 67.784,67.78399 1.9546,0 3.972,-0.0933 6.1706,-0.29333 l 5.1667,-0.456 1.4107,4.988 c 3.788,13.39333 17.1706,45.99733 36.844,52.28267 -3.2574,-9.692 -6.2027,-19.52134 -8.6454,-29.54934 -2.656,-10.87333 -4.7426,-21.97866 -5.8866,-33.37866 -0.3774,-2.82534 -0.4187,-5.74 -0.6387,-8.61067 l -0.2787,-4.07333 -0.3426,-3.87734 c -0.4614,-5.188 -1.1174,-10.39466 -1.9614,-15.54266 -1.5986,-10.29467 -3.9,-20.45867 -7.1213,-29.86267 -3.2493,-9.27333 -7.704,-18.17466 -13.3707,-23.012 -1.4133,-1.16133 -2.7706,-2.08533 -4.248,-2.824 -1.952,-0.90666 -3.9133,-1.63466 -5.86,-2.176 -3.8986,-1.04933 -7.68,-1.24533 -11.188,-0.604 -6.9506,1.29067 -13.1573,6.496 -16.7213,14.23867 -1.808,3.80933 -3.048,8.144 -3.5613,12.652 -0.5414,4.46 -0.492,8.95333 0.396,13.27333 1.6946,8.61734 6.9226,16.524 14.368,20.476 3.6853,1.97333 8.0546,2.69733 12.2226,2.092 3.9574,-0.44267 7.5827,-2.732 9.916,-6.62933 2.3014,-3.844 3.492,-8.88667 2.864,-13.84533 -0.628,-4.88 -2.9653,-10 -7.96,-12.61334 5.5494,0.996 10.136,5.97734 12.0827,11.568 1.9773,5.61734 2.3347,12.07867 0.041,18.15333 -2.0853,6.07734 -7.5173,11.69734 -14.2266,13.79734 -6.4134,2.084 -13.4694,1.908 -19.872,-0.28534 -6.3814,-2.18133 -12.124,-6.08266 -16.4334,-11.10533 -4.364,-4.98667 -7.532,-10.88666 -9.5146,-17.096 -1.952,-6.212 -2.8854,-12.752 -2.5574,-19.16666 0.2614,-6.37467 1.4694,-12.824 3.908,-19.06934 2.4547,-6.20933 6.236,-12.19466 11.4414,-17.12666 5.1706,-4.944 11.924,-8.588 19.0906,-10.20534 7.172,-1.66266 14.5907,-1.28133 21.2227,0.48134 3.324,0.87333 6.4987,2.032 9.5107,3.39733 3.444,1.624 6.664,3.72667 9.4146,6.09733 5.4134,4.828 9.2867,10.37734 12.2867,15.93867 3.068,5.56933 5.1853,11.272 6.9787,16.944 3.5746,11.35067 5.3826,22.73467 6.5133,34.07733 0.504,5.68267 0.7987,11.35467 0.884,17.064 0.031,1.428 0,2.86267 -0.024,4.30133 l -0.063,2.168 0.028,1.93867 c 0.085,2.576 -0.019,5.13333 0.212,7.73467 0.552,10.36266 2.0014,20.852 4.044,31.29066 2.2027,10.844 4.8707,21.67067 7.8547,32.45334 3.1253,-1.63467 3.572,-4.07467 3.6107,-5.044 v -123.732 l -0.056,-1.70933 c -2.5653,-34.82667 -31.78,-61.092 -67.9533,-61.092"
         style="fill:#fbbf24;fill-opacity:1;fill-rule:nonzero;stroke:none;stroke-width:0.133333" />
      <path
         id="path84"
         d="m 1198.968,509.44003 2.64,-0.12 0.01,-0.08 c 7.6973,-0.38666 46.6453,-2.16 58.0307,0.92 9.388,2.54667 15.2946,10.76 13.7413,19.12 -1.1093,5.98667 -6.3827,11.58667 -15.756,11.58667 -0.8387,0 -1.7107,-0.04 -2.6173,-0.13333 l 0.6693,-6.37334 c 4.7493,0.48 10,-9.48 0.136,-12.12 -5.9693,-1.58666 -29.776,-2.54666 -47.0507,-2.24 7.1587,17.30667 21.812,33.74667 43.784,32.68 12.888,-0.61333 24.7694,-6.2 33.4507,-15.74666 8.684,-9.54667 13.1307,-21.89334 12.5213,-34.78667 -0.6533,-13.82666 -6.1666,-25.96 -15.5213,-34.17333 -7.6293,-6.70667 -17.092,-10.18667 -27.5613,-10.18667 -1.32,0 -2.6587,0.0533 -4.0107,0.17334 -30.592,2.52 -137.5787,27.02666 -220.8053,72.70666 -41.07202,22.54667 -53.54802,39.884 -55.97069,46.2 1.332,-0.20667 3.272,-0.71067 5.852,-1.80267 129.76669,-54.85066 183.25599,-63.944 218.46269,-65.624"
         style="fill:#fbbf24;fill-opacity:1;fill-rule:nonzero;stroke:none;stroke-width:0.133333" />
      <path
         id="path85"
         d="m 1089.5306,827.30269 c 1.1587,-46.08266 10.7814,-89.47733 26.9494,-127.74399 -3.9307,-3.96 -6.904,-8.92 -8.4587,-14.572 l -0.031,-0.0733 c -1.2226,-3.048 -2.3706,-6.12266 -3.5186,-9.19733 -25.0427,43.928 -42.4014,95.81866 -49.368,152.248 1.7973,5.572 4.0546,10.93733 6.7146,16.06133 6.1174,-6.24267 15.216,-13.124 27.712,-16.72267"
         style="fill:#fbbf24;fill-opacity:1;fill-rule:nonzero;stroke:none;stroke-width:0.133333" />
      <path
         id="path86"
         d="m 1155.1173,900.85736 10.808,-0.32267 c -4.4987,-10.016 -7.024,-21.10533 -7.024,-32.77866 v -0.18534 c -6.4213,1.472 -12.9347,2.244 -19.4653,2.24534 -8.4574,0 -16.94,-1.236 -25.276,-3.71734 l -5.1507,-1.532 c -9.2533,-2.75466 -15.2933,-12.02 -14.9693,-22.064 -11.4827,3.29067 -19.168,10.29067 -23.5454,15.48134 19.1467,25.97866 49.9414,42.87333 84.6187,42.87333"
         style="fill:#fbbf24;fill-opacity:1;fill-rule:nonzero;stroke:none;stroke-width:0.133333" />
      <path
         id="path87"
         d="m 1155.9973,755.01736 -0.3427,-9.07866 c -1.3786,-7.49734 -7.008,-13.01467 -13.3093,-13.01467 l -0.264,0.004 c -6.0467,0.148 -11.2707,5.248 -12.708,12.40533 l -0.4067,1.41734 c -9.8533,30.21733 -16.1866,61.85599 -18.8213,94.01733 l -0.128,0.91333 c -0.7453,3.69867 1.2547,7.02533 3.516,7.69867 l 5.1493,1.53066 0.059,0.0147 c -0.1813,-4.96133 -0.2147,-9.92933 -0.063,-14.896 0.332,-11.64133 1.38,-23.284 3.4627,-34.79067 1.948,-11.51333 5.0013,-22.89066 9.192,-33.91866 -0.1093,11.70533 -0.9947,23.13733 -1.392,34.59733 -0.6053,11.432 -0.952,22.83733 -1.2947,34.23733 -0.1773,5.62534 -0.284,11.25334 -0.3733,16.88534 1.332,0.20933 2.664,0.37066 4.0013,0.504 -0.2546,-3.476 -0.4466,-6.95467 -0.4826,-10.44267 -0.1107,-8.856 0.3213,-17.73467 1.5453,-26.54267 1.12,-8.80933 3.0867,-17.55066 5.9293,-26.06 0.2827,8.89734 -0.033,17.61334 0.024,26.332 -0.104,8.70534 -0.011,17.38134 0.087,26.05467 0.033,3.676 0.12,7.35067 0.2093,11.028 7.132,-0.02 14.2334,-1.12267 21.1694,-3.27467 1.5146,-6.94933 3.9346,-13.56 7.1266,-19.71333 -6.8693,-24.62667 -10.904,-50.092 -11.8853,-75.908"
         style="fill:#fbbf24;fill-opacity:1;fill-rule:nonzero;stroke:none;stroke-width:0.133333" />
      <path
         id="path88"
         d="m 1135.488,572.94403 c -3.92,0 -7.84,0.24934 -11.748,0.71867 0.696,7.08267 1.4173,14.16 2.2173,21.22533 1.608,14.39734 3.22,28.79733 5.144,43.20667 1.6773,14.46666 3.932,28.84266 5.2947,43.65333 -6.1334,-13.492 -10.9547,-27.556 -14.4774,-41.91733 -3.6813,-14.336 -6.1506,-28.96 -7.7733,-43.66267 -0.764,-6.81733 -1.26,-13.66266 -1.56,-20.51466 -1.444,0.344 -2.8853,0.708 -4.32,1.11866 l -6.0427,1.72667 c -3.544,1.012 -5.6026,4.60267 -4.6813,8.17467 l 0.1907,1.02 c 4.0426,33.348 12.4413,66.06666 24.96,97.24933 l 0.532,1.50133 c 1.9773,7.68933 8.9066,13.06133 16.8493,13.06133 8.4867,0 15.6093,-5.97333 17.116,-14.27333 l 0.1427,-9.40533 c 0.3733,-24.472 3.752,-48.70267 9.9133,-72.30933 -12.432,-7.88134 -23.0933,-18.31067 -31.236,-30.56267 -0.1733,0 -0.348,-0.0107 -0.5213,-0.0107"
         style="fill:#fbbf24;fill-opacity:1;fill-rule:nonzero;stroke:none;stroke-width:0.133333" />
      <path
         id="path89"
         d="m 1064.0106,555.81337 17.9667,18.46133 c 1.6813,-7.904 7.5427,-14.56933 15.8947,-16.95467 l 6.0426,-1.73333 c 6.9907,-1.98667 14.0934,-3.26667 21.2267,-3.90667 -1.7973,-4.82666 -3.2333,-9.81333 -4.3067,-14.94666 -16.1293,4.76 -34.848,10.97333 -56.824,19.08"
         style="fill:#fbbf24;fill-opacity:1;fill-rule:nonzero;stroke:none;stroke-width:0.133333" />
      <path
         id="path90"
         d="m 1081.1093,583.38937 c 0.2933,0.14133 0.5947,0.27866 0.892,0.41733 l -0.028,-0.15733 c -0.2853,-0.0813 -0.5733,-0.17067 -0.864,-0.26"
         style="fill:#fbbf24;fill-opacity:1;fill-rule:nonzero;stroke:none;stroke-width:0.133333" />
      <path
         id="path91"
         d="m 1559.6666,857.43336 c -4.44,-5.13733 -11.9866,-11.76 -23.0933,-14.93467 0.32,10.04534 -5.72,19.312 -14.9733,22.068 l -5.1467,1.532 c -8.3333,2.48134 -16.8133,3.71734 -25.28,3.71734 -4.4267,-10e-4 -8.8533,-0.38267 -13.2533,-1.06534 -0.093,7.84934 -1.3067,15.43334 -3.5067,22.58933 l 8.2667,-0.24666 c 30.3866,0 57.7866,-12.97467 76.9866,-33.66"
         style="fill:#fbbf24;fill-opacity:1;fill-rule:nonzero;stroke:none;stroke-width:0.133333" />
      <path
         id="path93"
         d="m 1491.0266,853.93869 c 0.093,-3.68533 0.1734,-7.36933 0.2134,-11.05333 0.093,-8.67333 0.1866,-17.34933 0.093,-26.05467 0.053,-8.71866 -0.2667,-17.43466 0.013,-26.332 2.84,8.50934 4.8134,17.25067 5.9334,26.06 1.2266,8.808 1.6533,17.68667 1.5466,26.54267 -0.04,3.48933 -0.2266,6.97067 -0.48,10.448 1.3334,-0.13467 2.6667,-0.288 4,-0.49733 -0.093,-5.636 -0.2,-11.268 -0.3733,-16.89734 -0.3467,-11.4 -0.6933,-22.80533 -1.2933,-34.23733 -0.4,-11.46 -1.2934,-22.892 -1.4,-34.59733 4.2,11.028 7.2533,22.40533 9.2,33.91866 2.08,11.50667 3.12,23.14934 3.4533,34.79067 0.16,4.96667 0.12,9.93467 -0.053,14.896 l 0.053,-0.0147 5.1467,-1.53066 c 2.2666,-0.67334 4.2666,-4 3.52,-7.69867 l -0.1334,-0.91333 c -2.6266,-32.16134 -8.96,-63.8 -18.8133,-94.01733 l -0.4133,-1.41734 c -1.44,-7.15733 -6.6534,-12.25733 -12.7067,-12.40533 l -0.2667,-0.004 c -6.2933,0 -11.92,5.51733 -13.3066,13.01467 l -0.3467,9.07866 c -0.88,23.28533 -4.2133,46.29867 -9.8933,68.66133 5.6533,8.564 9.7066,18.26667 11.7333,28.68667 4.8133,1.016 9.6933,1.56133 14.5733,1.57333"
         style="fill:#fbbf24;fill-opacity:1;fill-rule:nonzero;stroke:none;stroke-width:0.133333" />
      <path
         id="path94"
         d="m 1588.4,645.04136 c -11.6134,-17.00933 -24.12,-32.92266 -37.44,-47.61999 -1.8534,11.80666 -4.2534,23.51466 -7.1467,35.09999 17.5867,25.85067 32.52,54.71067 44.2533,85.89734 l 0.3334,-73.37734"
         style="fill:#fbbf24;fill-opacity:1;fill-rule:nonzero;stroke:none;stroke-width:0.133333" />
      <path
         id="path95"
         d="m 1569.6533,844.91603 c 3.3333,-4.90534 6.24,-10.11867 8.72,-15.56667 -6.7733,-56.26533 -23.8267,-108.08133 -48.5867,-152.02 -0.9466,2.53067 -1.8933,5.06934 -2.8933,7.584 l -0.04,0.0733 c -1.6933,6.172 -5.08,11.528 -9.56,15.644 16,38.24533 25.48,81.55733 26.5333,127.53333 11.6667,3.95866 20.16,10.74666 25.8267,16.752"
         style="fill:#fbbf24;fill-opacity:1;fill-rule:nonzero;stroke:none;stroke-width:0.133333" />
      <path
         id="path96"
         d="m 1641.1466,836.22536 c -8.0933,28.48 -25.32,53.40267 -47.7866,72.49333 -4.2134,3.59333 -9.7867,3.87067 -14,0 -3.72,-3.41867 -3.96,-10.63733 0,-14.00533 6.04,-5.12933 11.7333,-10.644 16.96,-16.60267 1.16,-1.33333 2.3066,-2.68666 3.4266,-4.06 0.48,-0.59333 1.1467,-1.25066 1.5334,-1.92133 -0.24,0.336 -0.84,1.10667 -0.2934,0.37067 0.2267,-0.30134 0.4534,-0.59734 0.68,-0.89867 2.0134,-2.68933 3.9334,-5.452 5.7467,-8.28267 3.52,-5.50933 6.64,-11.27866 9.3067,-17.252 0.24,-0.56266 0.4933,-1.12933 0.7333,-1.69466 0.4667,-1.06267 -0.2667,0.656 -0.28,0.65866 0.2533,-0.0787 0.72,-1.77466 0.8267,-2.064 0.5866,-1.49866 1.1466,-3.00666 1.68,-4.52666 1.12,-3.17867 2.1066,-6.4 2.9733,-9.65334 0.8667,-3.3 1.6267,-6.63333 2.24,-9.99066 0.3333,-1.764 0.6267,-3.53467 0.8933,-5.31067 l 0.04,-0.26 c 0.013,-0.13067 0.04,-0.308 0.067,-0.56933 0.093,-0.77467 0.1733,-1.55067 0.2667,-2.328 0.6,-5.53734 4.0533,-9.64134 9.8933,-9.90267 4.96,-0.22267 10.4667,4.73467 9.9067,9.90267 -0.9467,8.74666 -2.4,17.428 -4.8134,25.89733 m -68.36,80.77066 c -0.3066,1.288 -0.8933,2.412 -1.7733,3.36667 -0.6933,1.08 -1.6267,1.928 -2.7733,2.55067 -1.1467,0.63466 -2.4134,1.10666 -3.6134,1.59866 -0.44,0.18 -0.8933,0.33467 -1.3466,0.47067 -0.9467,0.28267 -1.92,0.47733 -2.8934,0.64933 -1.76,0.47067 -3.52,0.47067 -5.2666,0 -0.8,-0.33466 -1.5867,-0.66666 -2.3734,-1 -1.48,-0.88 -2.6666,-2.06533 -3.5466,-3.552 -0.3334,-0.78933 -0.6667,-1.57733 -1,-2.36533 -0.4134,-1.31733 -0.4667,-2.63333 -0.1734,-3.94933 0.053,-1.31867 0.44,-2.54534 1.1734,-3.68267 0.6133,-1.15333 1.4666,-2.08 2.5466,-2.77867 0.96,-0.87466 2.08,-1.46666 3.3734,-1.772 1.1333,-0.2 2.2666,-0.47866 3.3733,-0.84533 1.4667,-0.80267 3.0533,-1.22267 4.7467,-1.228 0.88,0.11867 1.76,0.236 2.6266,0.35467 1.68,0.47066 3.1467,1.31866 4.3734,2.54666 0.52,0.668 1.04,1.336 1.5466,2.004 0.7334,1.13734 1.12,2.36534 1.1734,3.68267 0.3066,1.316 0.24,2.63333 -0.1734,3.94933 m -39.8133,13.888 c -5.5467,0 -9.6667,-4.53733 -9.9067,-9.904 -0.24,-5.348 4.72,-9.904 9.9067,-9.904 5.5467,0 9.6667,4.53867 9.9067,9.904 0.24,5.34934 -4.72,9.904 -9.9067,9.904 m 92.2133,-353.46932 c 1.5734,0.624 3.1867,1.17867 4.8134,1.64133 -8.1334,-3.364 -15.9467,-6.53866 -23.44,-9.52266 l -0.9734,216.48532 c 0,67.768 -55.1333,122.9 -122.9066,122.9 l -16.4,0.48933 c -14.1067,23.14934 -39.5867,38.63867 -68.6267,38.63867 -0.7333,0 -1.48,-0.012 -2.2267,-0.032 -1.5733,4.61467 -4.3333,11.98 -8.3733,19.92267 29.4533,-9.17867 88.1467,-25.096 155.9467,-30.34 29.1066,-2.252 63.5466,-16.05334 84.1333,-45.38667 29.6267,-42.2 33.52,-100.73733 19.0133,-153.28799 -19.5066,-70.61867 -21.6933,-129.45867 -20.96,-161.508"
         style="fill:#fbbf24;fill-opacity:1;fill-rule:nonzero;stroke:none;stroke-width:0.133333" />
      <path
         id="path97"
         d="m 1640.0133,449.9067 c -1.56,-1.44 -3.1733,-2.81333 -4.84,-4.13333 -2.2533,-1.70667 -4.6267,-3.33333 -7.1467,-4.58667 -0.2266,0 -0.4666,-0.0133 -0.7066,0.0133 0.1866,-0.0267 0.3733,-0.0533 0.56,-0.08 v 0 c -2.0534,0.14666 -3.9734,-0.18667 -5.9067,-1.21334 -2.2933,-1.2 -3.7733,-3.52 -4.5467,-5.92 -0.7733,-2.37333 -0.2533,-5.50666 1,-7.62666 1.1467,-1.97334 3.5867,-4.12 5.92,-4.54667 2.8134,-0.53333 4.8934,-0.56 7.7067,-0.0533 1.7733,0.32 3.48,1.12 5.0933,1.85333 1.8667,0.86667 3.6,2 5.2934,3.14667 4.08,2.73333 7.9866,5.8 11.5733,9.14666 1.9467,1.8 2.7867,4.42667 2.9067,7 0.12,2.64 -1.1734,5.12 -2.9067,7 -1.6667,1.82667 -4.5733,2.90667 -7,2.90667 -2.6267,0 -5.0933,-1.13333 -7,-2.90667 z m 22.6667,3.16 c 5.5466,0 9.6666,4.53334 9.9066,9.89334 0.24,5.34666 -4.7333,9.90666 -9.9066,9.90666 -5.5467,0 -9.6667,-4.53333 -9.9067,-9.90666 -0.24,-5.34667 4.7333,-9.89334 9.9067,-9.89334 z m -0.5067,45.30667 c -5.56,0 -9.6667,-4.54667 -9.9067,-9.90667 -0.24,-5.34666 4.72,-9.90666 9.9067,-9.90666 5.5467,0 9.6667,4.53333 9.8933,9.90666 0.24,5.34667 -4.72,9.90667 -9.8933,9.90667 z m -17.0667,37.44 c 25.4667,-20.34667 33.9734,-42.16 34.3734,-65.13333 0.3066,-17.42667 -8.44,-30.97334 -22.04,-42.33334 -20.2267,-16.89333 -49.04,-18.17333 -49.4,-18.13333 l -0.1867,-2.13333 c -2.6267,8.26666 -6.2933,16.08 -10.8133,23.29333 3.4,7.93333 5.9733,16.28 7.6533,24.94667 7.48,3.6 14.9867,7.62666 22.44,12.24 8.72,5.38666 14.6133,13.77333 16.1733,23.02666 0.4267,2.46667 0.64,5.05333 0.64,7.69333 0,6.46667 -3.32,9.89334 -5.3066,11.37334 -2.84,2.12 -6.2534,2.98666 -10.2534,2.98666 -5.8933,0 -13.0666,-1.88 -21.5466,-4.37333 l -0.013,2.04 c 0.9734,0.52 1.96,1.05333 2.9334,1.58667 13.7333,7.53333 25.6266,15.30666 35.3466,22.92"
         style="fill:#fbbf24;fill-opacity:1;fill-rule:nonzero;stroke:none;stroke-width:0.133333" />
      <path
         id="path98"
         d="m 1532.2,411.5467 c 4.9866,0 8.68,4.08 8.8933,8.89334 0.2133,4.8 -4.24,8.88 -8.8933,8.88 -4.9734,0 -8.6667,-4.06667 -8.88,-8.88 -0.2134,-4.8 4.24,-8.89334 8.88,-8.89334 z m -24.7734,6.48 c 4.3067,0 7.4934,3.50667 7.68,7.66667 0.08,1.93333 -0.7333,3.72 -2.0133,5.09333 9.84,1.04 21.6667,2.81334 34.7067,5.8 -1.3867,-1.46666 -2.2534,-3.45333 -2.3467,-5.61333 -0.2,-4.4 3.88,-8.13333 8.1333,-8.13333 4.56,0 7.9334,3.73333 8.12,8.13333 0.16,3.49333 -2.4133,6.54667 -5.6133,7.65333 8.96,2.33334 18.3467,5.24 27.9867,8.88 -4.4,-13.65333 -11.5067,-26.08 -20.6934,-36.66666 -1.48,3.64 -5.3066,6.30666 -9.2666,6.30666 -5.5467,0 -9.6667,-4.53333 -9.9067,-9.90666 -0.1733,-3.98667 2.5467,-7.53334 6.0933,-9.08 -18.0933,-14.74667 -41.1333,-23.6 -66.24,-23.6 H 1474 l 26.4,48.04 c 1.24,-2.65334 4.08,-4.57334 7.0266,-4.57334"
         style="fill:#fbbf24;fill-opacity:1;fill-rule:nonzero;stroke:none;stroke-width:0.133333" />
      <path
         id="path99"
         d="m 1445.8933,547.76003 c 4.56,0 7.9333,3.72 8.1333,8.12 0.2,4.396 -3.88,8.136 -8.1333,8.136 -4.56,0 -7.9333,-3.72666 -8.1333,-8.136 -0.1867,-4.38666 3.88,-8.12 8.1333,-8.12 m 20.5867,10.32 c 5.56,0 9.6666,4.53867 9.9066,9.90267 0.24,5.34933 -4.72,9.904 -9.9066,9.904 -5.5467,0 -9.6534,-4.536 -9.8934,-9.904 -0.24,-5.348 4.72,-9.90267 9.8934,-9.90267 m -21.9067,31.98267 c -4.9867,0 -8.6667,-4.07067 -8.88,-8.88267 -0.2133,-4.79866 4.2267,-8.884 8.88,-8.884 4.9867,0 8.6667,4.06934 8.88,8.884 0.2133,4.796 -4.24,8.88267 -8.88,8.88267 m -65.12,-25.44133 c -17.12,-0.81067 -32.8933,-8.23467 -44.4267,-20.91467 -4.4093,-4.85333 -7.9893,-10.25333 -10.6946,-16.02667 6.0266,42.97467 43.0146,76.15467 87.6146,76.15467 43.1467,0 78.88,-30.404 86.8,-71.39467 -26.3733,-6.98666 -44.9733,-9.66666 -59.9066,-10.72 -11.1734,27.82667 -33.5467,44.12 -59.3867,42.90134"
         style="fill:#fbbf24;fill-opacity:1;fill-rule:nonzero;stroke:none;stroke-width:0.133333" />
      <path
         id="path100"
         d="m 1099.2693,930.88402 c -5.1787,0 -10.1427,-4.55466 -9.9027,-9.904 0.24,-5.36533 4.3507,-9.904 9.9027,-9.904 5.18,0 10.144,4.556 9.904,9.904 -0.2413,5.36667 -4.352,9.904 -9.904,9.904 m -15.224,-12.16933 c -0.332,0.788 -0.6653,1.576 -0.9987,2.36533 -0.88,1.48667 -2.0653,2.672 -3.552,3.552 -0.7893,0.33334 -1.576,0.66534 -2.3653,1 -1.7547,0.47067 -3.5107,0.47067 -5.2653,0 -0.976,-0.172 -1.9494,-0.36666 -2.9,-0.64933 -0.456,-0.136 -0.9054,-0.29067 -1.344,-0.47067 -1.196,-0.492 -2.4654,-0.964 -3.6134,-1.59866 -1.1533,-0.62267 -2.0813,-1.47067 -2.7786,-2.55067 -0.8747,-0.95467 -1.4654,-2.07867 -1.772,-3.36667 -0.4134,-1.316 -0.4734,-2.63333 -0.1774,-3.94933 0.06,-1.31733 0.452,-2.54533 1.1747,-3.68267 0.5173,-0.668 1.0333,-1.336 1.548,-2.004 1.236,-1.228 2.6933,-2.076 4.3707,-2.54666 0.8773,-0.11867 1.7546,-0.236 2.6333,-0.35467 1.6933,0.005 3.2733,0.42533 4.7493,1.228 1.1014,0.36667 2.2294,0.64533 3.3747,0.84533 1.2893,0.30534 2.4107,0.89734 3.368,1.772 1.0773,0.69867 1.9267,1.62534 2.5493,2.77867 0.724,1.13733 1.116,2.364 1.176,3.68267 0.2947,1.316 0.236,2.632 -0.1773,3.94933 m -31.1627,-9.996 c -4.216,3.87067 -9.78,3.59333 -14.004,0 -22.4573,-19.09066 -39.69196,-44.01333 -47.78529,-72.49333 -2.408,-8.46933 -3.86933,-17.15067 -4.81333,-25.89733 -0.55734,-5.168 4.95466,-10.12534 9.904,-9.90267 5.84262,0.26133 9.30532,4.36533 9.90262,9.90267 0.084,0.77733 0.176,1.55333 0.2654,2.328 0.029,0.26133 0.048,0.43866 0.061,0.56933 l 0.049,0.26 c 0.2587,1.776 0.5534,3.54667 0.8814,5.31067 0.6253,3.35733 1.3746,6.69066 2.2493,9.99066 0.8653,3.25334 1.8547,6.47467 2.9667,9.65334 0.532,1.52 1.0906,3.028 1.6786,4.52666 0.1134,0.28934 0.5734,1.98534 0.8294,2.064 -0.011,-0.003 -0.7467,-1.72133 -0.28,-0.65866 0.248,0.56533 0.4893,1.132 0.7413,1.69466 2.664,5.97334 5.7813,11.74267 9.3053,17.252 1.8094,2.83067 3.7267,5.59334 5.7414,8.28267 0.224,0.30133 0.4546,0.59733 0.6773,0.89867 0.552,0.74 -0.048,-0.0413 -0.296,-0.37467 0.392,0.672 1.064,1.33067 1.5453,1.92533 1.1187,1.37334 2.2614,2.72667 3.4267,4.06 5.2213,5.95867 10.92,11.47334 16.9533,16.60267 3.9627,3.368 3.724,10.58666 0,14.00533 m 186.3094,39.328 c -25.2494,0 -47.8014,-11.72533 -62.5307,-30.00533 l -21.544,0.64266 c -67.7693,0 -122.9013,-55.13333 -122.9013,-122.90133 l -2.3134,-226.88266 c -6.304,2.50534 -12.82,5.13334 -19.5813,7.908 0.4907,33.01467 -2.02,94.032 -20.82399,162.11467 -14.51467,52.55066 -10.616,111.08799 19.00799,153.28799 20.5907,29.33333 55.0307,43.13467 84.1307,45.38667 68.916,5.32933 128.4493,21.69333 157.3933,30.79066 -4.1573,-8.11333 -7.004,-15.672 -8.6,-20.37333 -0.7533,0.02 -1.4973,0.032 -2.2373,0.032"
         style="fill:#fbbf24;fill-opacity:1;fill-rule:nonzero;stroke:none;stroke-width:0.133333" />
      <path
         id="path101"
         d="m 1032.2933,284.25337 c 5.1813,0 10.1427,4.54667 9.904,9.90667 -0.24,5.36 -4.352,9.89333 -9.904,9.89333 -5.18,0 -10.1413,-4.54666 -9.904,-9.89333 0.2413,-5.37333 4.3533,-9.90667 9.904,-9.90667 z m 18.8707,-17.34666 c 5.18,0 10.1426,4.56 9.9026,9.90666 -0.24,5.36 -4.352,9.90667 -9.9026,9.90667 -5.18,0 -10.1427,-4.56 -9.9027,-9.90667 0.2387,-5.36 4.3507,-9.90666 9.9027,-9.90666 z m 11.9946,-5.74667 c 0.78,-2.41333 2.2654,-4.69333 4.552,-5.92 5.452,-2.94667 11.1107,-5.48 16.8747,-7.76 1.3147,-0.4 2.6307,-0.46667 3.948,-0.17333 1.3187,0.0667 2.5453,0.45333 3.6813,1.17333 2.0547,1.2 4.0147,3.56 4.552,5.92 0.5774,2.54667 0.452,5.38667 -0.9986,7.64 -0.5147,0.66667 -1.032,1.33333 -1.548,2 -1.2347,1.22667 -2.692,2.08 -4.3694,2.54667 -0.4893,0.18666 -0.9733,0.4 -1.4586,0.58666 -3.6334,1.57334 -7.2014,3.28 -10.684,5.16 -2.3094,1.25334 -5.0667,1.70667 -7.632,1 -2.2974,-0.62666 -4.7854,-2.4 -5.9187,-4.54666 -1.2133,-2.30667 -1.8227,-5.08 -0.9987,-7.62667 z m 49.716,-18.21333 c 5.1787,0 10.1414,4.54666 9.9027,9.89333 -0.24,5.37333 -4.3507,9.90667 -9.9027,9.90667 -5.1813,0 -10.144,-4.56 -9.904,-9.90667 0.2387,-5.36 4.3507,-9.89333 9.904,-9.89333 z m 19.0094,2.74666 c 1.9106,-1.76 4.3426,-2.97333 7.0026,-2.90666 7.36,0.17333 14.768,1.16 21.9174,2.92 2.3773,0.58666 4.696,2.46666 5.9186,4.54666 1.2427,2.13334 1.768,5.25334 0.9987,7.64 -1.6907,5.21334 -6.7893,8.24 -12.1827,6.90667 -2.7066,-0.65333 -5.444,-1.17333 -8.1986,-1.58667 -2.808,-0.33333 -5.6267,-0.54666 -8.4534,-0.61333 -2.576,-0.0667 -5.164,-1.06667 -7.0026,-2.90667 -1.7174,-1.72 -3.0107,-4.53333 -2.9,-7 0.1133,-2.56 0.9546,-5.21333 2.9,-7 z m -129.1187,147.38667 c 9.004,-1.05334 16.4573,-0.96 20.3227,-0.8 -0.7627,-5.04 -1.164,-10.2 -1.164,-15.45334 0,-56.83999 46.2386,-103.07999 103.0773,-103.07999 39.004,0 72.9947,21.78666 90.4987,53.82666 l 48.456,-12.38666 c -6.028,-10.38667 -10.1694,-21.48 -12.016,-28.01334 l -1.4107,-4.98666 -5.1667,0.45333 c -2.1986,0.2 -4.216,0.29333 -6.1706,0.29333 -27.0467,0 -50.4347,-15.92 -61.3027,-38.89333 -12.5253,-3.61333 -95.3053,-24.41333 -144.7547,26.30667 -29.212,29.97333 -47.84796,80.2 -30.3693,122.73333"
         style="fill:#fbbf24;fill-opacity:1;fill-rule:nonzero;stroke:none;stroke-width:0.133333" />
      <path
         id="path102"
         d="m 978.22531,435.9067 c 3.59467,-3.34666 7.496,-6.41333 11.57333,-9.14666 1.69867,-1.14667 3.432,-2.28 5.29334,-3.14667 1.61333,-0.73333 3.32266,-1.53333 5.09602,-1.85333 2.8173,-0.50667 4.9,-0.48 7.7173,0.0533 2.3227,0.42667 4.7613,2.57333 5.9173,4.54667 1.2427,2.12 1.7694,5.25333 0.9987,7.62666 -0.776,2.4 -2.26,4.72 -4.552,5.92 -1.9347,1.02667 -3.848,1.36 -5.9053,1.21334 h -0.01 c 0.1867,0.0267 0.3747,0.0533 0.5627,0.08 -0.24,-0.0267 -0.4747,-0.0133 -0.7093,-0.0133 -2.512,1.25334 -4.88402,2.88 -7.13469,4.58667 -1.66667,1.32 -3.28933,2.69333 -4.84667,4.13333 -1.90266,1.77334 -4.368,2.90667 -7.00266,2.90667 -2.42934,0 -5.33067,-1.08 -7.00267,-2.90667 -1.73333,-1.88 -3.01867,-4.36 -2.90133,-7 0.11466,-2.57333 0.964,-5.2 2.90133,-7 z m -8.15067,62.46667 c -5.18133,0 -10.144,-4.56 -9.904,-9.90667 0.24,-5.37333 4.352,-9.90666 9.904,-9.90666 5.18,0 10.14134,4.56 9.90267,9.90666 -0.24,5.36 -4.352,9.90667 -9.90267,9.90667 z m -0.51066,-45.30667 c 5.18,0 10.144,4.54667 9.904,9.89334 -0.24134,5.37333 -4.352,9.90666 -9.904,9.90666 -5.18,0 -10.14267,-4.56 -9.904,-9.90666 0.24133,-5.36 4.352,-9.89334 9.904,-9.89334 z m -16.63867,17.61334 c 0.40667,23.33333 9.14267,45.49333 35.58133,66.11999 9.944,-7.92 22.28266,-16.04 36.61996,-23.90666 1.3867,-0.76 2.7814,-1.52 4.1827,-2.26667 l -0.019,-1.73333 c -9.0346,2.68 -16.6173,4.74666 -22.7906,4.74666 -4.0027,0 -7.41336,-0.86666 -10.26002,-2.98666 -1.98,-1.48 -5.30134,-4.90667 -5.30134,-11.37334 0,-2.64 0.21067,-5.22666 0.628,-7.69333 1.56534,-9.25333 7.464,-17.64 16.18266,-23.02666 7.852,-4.85334 15.7747,-9.09334 23.6493,-12.81334 1.5854,-8.01333 3.9414,-15.74666 7.004,-23.10666 -4.464,-6.90667 -8.124,-14.37334 -10.8533,-22.26667 -7.4053,0.49333 -35.09466,3.37333 -52.57866,17.97333 -13.59733,11.36 -22.34666,24.90667 -22.04533,42.33334"
         style="fill:#fbbf24;fill-opacity:1;fill-rule:nonzero;stroke:none;stroke-width:0.133333" />
      <path
         id="path103"
         d="m 1100.0386,429.32004 c -4.648,0 -9.1,-4.08 -8.884,-8.88 0.216,-4.81334 3.9027,-8.89334 8.884,-8.89334 4.6454,0 9.0974,4.09334 8.8827,8.89334 -0.2147,4.81333 -3.904,8.88 -8.8827,8.88 z m 32.108,0.57333 29.1867,-55.33333 h -9.44 c -25.8187,0 -49.4787,9.37333 -67.788,24.88 2.42,1.82666 4.064,4.68 3.924,7.8 -0.24,5.37333 -4.352,9.90666 -9.904,9.90666 -2.9533,0 -5.832,-1.48 -7.7213,-3.74666 -8.0454,9.88 -14.3174,21.25333 -18.3667,33.62666 8.7333,-3.24 17.2613,-5.88 25.432,-8.05333 -3.788,-0.61333 -7.116,-4.02667 -6.9373,-8 0.196,-4.4 3.5706,-8.13333 8.128,-8.13333 4.2533,0 8.3266,3.73333 8.1306,8.13333 -0.1173,2.61333 -1.3773,4.97333 -3.324,6.48 13.4094,-3.25333 25.6454,-5.22667 35.9174,-6.38667 -1.4267,-1.4 -2.3347,-3.30666 -2.2414,-5.37333 0.1854,-4.16 3.3694,-7.66667 7.6694,-7.66667 4.0106,0 7.8546,3.52 7.6706,7.66667 -0.071,1.57333 -0.5706,3.04 -1.3933,4.28 0.356,-0.0267 0.708,-0.0533 1.0573,-0.08"
         style="fill:#fbbf24;fill-opacity:1;fill-rule:nonzero;stroke:none;stroke-width:0.133333" />
      <path
         id="path104"
         d="m 1187.6706,590.0627 c -4.6453,0 -9.0973,-4.08667 -8.8826,-8.88267 0.2146,-4.81466 3.9026,-8.884 8.8826,-8.884 4.6467,0 9.0987,4.08534 8.884,8.884 -0.216,4.812 -3.9026,8.88267 -8.884,8.88267 m -21.912,-12.176 c -5.1786,0 -10.1426,-4.55467 -9.9026,-9.904 0.2413,-5.364 4.352,-9.90267 9.9026,-9.90267 5.18,0 10.144,4.55467 9.904,9.90267 -0.24,5.368 -4.3506,9.904 -9.904,9.904 m 21.5054,-23.98 c 4.2533,0 8.328,3.73467 8.1306,8.124 -0.1973,4.40533 -3.572,8.13067 -8.1306,8.13067 -4.252,0 -8.3267,-3.74 -8.1294,-8.13067 0.1974,-4.404 3.572,-8.124 8.1294,-8.124 m 8.7826,-32.18667 c -14.9466,1.05334 -33.548,3.73334 -59.932,10.72 7.9907,40.636 43.8574,71.39467 86.7987,71.39467 42.1093,0 77.42,-29.57733 86.3093,-69.048 l 0.2454,0.0933 c -0.236,-1.25333 -0.4734,-2.49333 -0.6654,-3.74666 -2.44,4.48 -5.4306,8.70666 -8.952,12.57333 -11.5333,12.68 -27.3093,20.104 -44.4253,20.91467 -25.8387,1.21866 -48.2067,-15.07467 -59.3787,-42.90134"
         style="fill:#fbbf24;fill-opacity:1;fill-rule:nonzero;stroke:none;stroke-width:0.133333" />
      <path
         style="fill:#fbbf24;fill-opacity:1;stroke-width:2.09454"
         d=""
         id="path136"
         transform="translate(-3.9257108,67.422037)" />
      <path
         style="fill:#fbbf24;fill-opacity:1;stroke-width:2.09454"
         d=""
         id="path137"
         transform="translate(-3.9257108,67.422037)" />
      <path
         style="fill:#fbbf24;fill-opacity:1;stroke-width:2.09454"
         d=""
         id="path138"
         transform="translate(-3.9257108,67.422037)" />
   </g>
</svg>